<svg xmlns="http://www.w3.org/2000/svg" style="display: none;">
  <!-- Generated from Tabler Icons - do not edit manually -->

  <symbol id="debugbar-icon-adjustments" viewBox="0 0 24 24">
    <path stroke="none" d="M0 0h24v24H0z" fill="none"/> <path d="M4 10a2 2 0 1 0 4 0a2 2 0 0 0 -4 0" /> <path d="M6 4v4" /> <path d="M6 12v8" /> <path d="M10 16a2 2 0 1 0 4 0a2 2 0 0 0 -4 0" /> <path d="M12 4v10" /> <path d="M12 18v2" /> <path d="M16 7a2 2 0 1 0 4 0a2 2 0 0 0 -4 0" /> <path d="M18 4v1" /> <path d="M18 9v11" />
  </symbol>

  <symbol id="debugbar-icon-adjustments-horizontal" viewBox="0 0 24 24">
    <path stroke="none" d="M0 0h24v24H0z" fill="none"/> <path d="M14 6m-2 0a2 2 0 1 0 4 0a2 2 0 1 0 -4 0" /> <path d="M4 6l8 0" /> <path d="M16 6l4 0" /> <path d="M8 12m-2 0a2 2 0 1 0 4 0a2 2 0 1 0 -4 0" /> <path d="M4 12l2 0" /> <path d="M10 12l10 0" /> <path d="M17 18m-2 0a2 2 0 1 0 4 0a2 2 0 1 0 -4 0" /> <path d="M4 18l11 0" /> <path d="M19 18l1 0" />
  </symbol>

  <symbol id="debugbar-icon-arrow-right" viewBox="0 0 24 24">
    <path stroke="none" d="M0 0h24v24H0z" fill="none"/> <path d="M5 12l14 0" /> <path d="M13 18l6 -6" /> <path d="M13 6l6 6" />
  </symbol>

  <symbol id="debugbar-icon-arrows-left-right" viewBox="0 0 24 24">
    <path stroke="none" d="M0 0h24v24H0z" fill="none"/> <path d="M21 17l-18 0" /> <path d="M6 10l-3 -3l3 -3" /> <path d="M3 7l18 0" /> <path d="M18 20l3 -3l-3 -3" />
  </symbol>

  <symbol id="debugbar-icon-bolt" viewBox="0 0 24 24">
    <path stroke="none" d="M0 0h24v24H0z" fill="none"/> <path d="M13 3l0 7l6 0l-8 11l0 -7l-6 0l8 -11" />
  </symbol>

  <symbol id="debugbar-icon-bookmark" viewBox="0 0 24 24">
    <path stroke="none" d="M0 0h24v24H0z" fill="none"/> <path d="M18 7v14l-6 -4l-6 4v-14a4 4 0 0 1 4 -4h4a4 4 0 0 1 4 4z" />
  </symbol>

  <symbol id="debugbar-icon-box" viewBox="0 0 24 24">
    <path stroke="none" d="M0 0h24v24H0z" fill="none"/> <path d="M12 3l8 4.5l0 9l-8 4.5l-8 -4.5l0 -9l8 -4.5" /> <path d="M12 12l8 -4.5" /> <path d="M12 12l0 9" /> <path d="M12 12l-8 -4.5" />
  </symbol>

  <symbol id="debugbar-icon-briefcase" viewBox="0 0 24 24">
    <path stroke="none" d="M0 0h24v24H0z" fill="none"/> <path d="M3 7m0 2a2 2 0 0 1 2 -2h14a2 2 0 0 1 2 2v9a2 2 0 0 1 -2 2h-14a2 2 0 0 1 -2 -2z" /> <path d="M8 7v-2a2 2 0 0 1 2 -2h4a2 2 0 0 1 2 2v2" /> <path d="M12 12l0 .01" /> <path d="M3 13a20 20 0 0 0 18 0" />
  </symbol>

  <symbol id="debugbar-icon-bug" viewBox="0 0 24 24">
    <path stroke="none" d="M0 0h24v24H0z" fill="none"/> <path d="M9 9v-1a3 3 0 0 1 6 0v1" /> <path d="M8 9h8a6 6 0 0 1 1 3v3a5 5 0 0 1 -10 0v-3a6 6 0 0 1 1 -3" /> <path d="M3 13l4 0" /> <path d="M17 13l4 0" /> <path d="M12 20l0 -6" /> <path d="M4 19l3.35 -2" /> <path d="M20 19l-3.35 -2" /> <path d="M4 7l3.75 2.4" /> <path d="M20 7l-3.75 2.4" />
  </symbol>

  <symbol id="debugbar-icon-calendar" viewBox="0 0 24 24">
    <path stroke="none" d="M0 0h24v24H0z" fill="none"/> <path d="M4 7a2 2 0 0 1 2 -2h12a2 2 0 0 1 2 2v12a2 2 0 0 1 -2 2h-12a2 2 0 0 1 -2 -2v-12z" /> <path d="M16 3v4" /> <path d="M8 3v4" /> <path d="M4 11h16" /> <path d="M11 15h1" /> <path d="M12 15v3" />
  </symbol>

  <symbol id="debugbar-icon-chart-infographic" viewBox="0 0 24 24">
    <path stroke="none" d="M0 0h24v24H0z" fill="none"/> <path d="M7 7m-4 0a4 4 0 1 0 8 0a4 4 0 1 0 -8 0" /> <path d="M7 3v4h4" /> <path d="M9 17l0 4" /> <path d="M17 14l0 7" /> <path d="M13 13l0 8" /> <path d="M21 12l0 9" />
  </symbol>

  <symbol id="debugbar-icon-clock" viewBox="0 0 24 24">
    <path stroke="none" d="M0 0h24v24H0z" fill="none"/> <path d="M3 12a9 9 0 1 0 18 0a9 9 0 0 0 -18 0" /> <path d="M12 7v5l3 3" />
  </symbol>

  <symbol id="debugbar-icon-code" viewBox="0 0 24 24">
    <path stroke="none" d="M0 0h24v24H0z" fill="none"/> <path d="M7 8l-4 4l4 4" /> <path d="M17 8l4 4l-4 4" /> <path d="M14 4l-4 16" />
  </symbol>

  <symbol id="debugbar-icon-database" viewBox="0 0 24 24">
    <path stroke="none" d="M0 0h24v24H0z" fill="none"/> <path d="M12 6m-8 0a8 3 0 1 0 16 0a8 3 0 1 0 -16 0" /> <path d="M4 6v6a8 3 0 0 0 16 0v-6" /> <path d="M4 12v6a8 3 0 0 0 16 0v-6" />
  </symbol>

  <symbol id="debugbar-icon-flag" viewBox="0 0 24 24">
    <path stroke="none" d="M0 0h24v24H0z" fill="none"/> <path d="M5 5a5 5 0 0 1 7 0a5 5 0 0 0 7 0v9a5 5 0 0 1 -7 0a5 5 0 0 0 -7 0v-9z" /> <path d="M5 21v-7" />
  </symbol>

  <symbol id="debugbar-icon-history" viewBox="0 0 24 24">
    <path stroke="none" d="M0 0h24v24H0z" fill="none"/> <path d="M12 8l0 4l2 2" /> <path d="M3.05 11a9 9 0 1 1 .5 4m-.5 5v-5h5" />
  </symbol>

  <symbol id="debugbar-icon-inbox" viewBox="0 0 24 24">
    <path stroke="none" d="M0 0h24v24H0z" fill="none"/> <path d="M4 4m0 2a2 2 0 0 1 2 -2h12a2 2 0 0 1 2 2v12a2 2 0 0 1 -2 2h-12a2 2 0 0 1 -2 -2z" /> <path d="M4 13h3l3 3h4l3 -3h3" />
  </symbol>

  <symbol id="debugbar-icon-leaf" viewBox="0 0 24 24">
    <path stroke="none" d="M0 0h24v24H0z" fill="none"/> <path d="M5 21c.5 -4.5 2.5 -8 7 -10" /> <path d="M9 18c6.218 0 10.5 -3.288 11 -12v-2h-4.014c-9 0 -11.986 4 -12 9c0 1 0 3 2 5h3z" />
  </symbol>

  <symbol id="debugbar-icon-list" viewBox="0 0 24 24">
    <path stroke="none" d="M0 0h24v24H0z" fill="none"/> <path d="M9 6l11 0" /> <path d="M9 12l11 0" /> <path d="M9 18l11 0" /> <path d="M5 6l0 .01" /> <path d="M5 12l0 .01" /> <path d="M5 18l0 .01" />
  </symbol>

  <symbol id="debugbar-icon-logs" viewBox="0 0 24 24">
    <path stroke="none" d="M0 0h24v24H0z" fill="none"/> <path d="M4 12h.01" /> <path d="M4 6h.01" /> <path d="M4 18h.01" /> <path d="M8 18h2" /> <path d="M8 12h2" /> <path d="M8 6h2" /> <path d="M14 6h6" /> <path d="M14 12h6" /> <path d="M14 18h6" />
  </symbol>

  <symbol id="debugbar-icon-search" viewBox="0 0 24 24">
    <path stroke="none" d="M0 0h24v24H0z" fill="none"/> <path d="M10 10m-7 0a7 7 0 1 0 14 0a7 7 0 1 0 -14 0" /> <path d="M21 21l-6 -6" />
  </symbol>

  <symbol id="debugbar-icon-server-cog" viewBox="0 0 24 24">
    <path stroke="none" d="M0 0h24v24H0z" fill="none"/> <path d="M3 4m0 3a3 3 0 0 1 3 -3h12a3 3 0 0 1 3 3v2a3 3 0 0 1 -3 3h-12a3 3 0 0 1 -3 -3z" /> <path d="M12 20h-6a3 3 0 0 1 -3 -3v-2a3 3 0 0 1 3 -3h10.5" /> <path d="M18 18m-2 0a2 2 0 1 0 4 0a2 2 0 1 0 -4 0" /> <path d="M18 14.5v1.5" /> <path d="M18 20v1.5" /> <path d="M21.032 16.25l-1.299 .75" /> <path d="M16.27 19l-1.3 .75" /> <path d="M14.97 16.25l1.3 .75" /> <path d="M19.733 19l1.3 .75" /> <path d="M7 8v.01" /> <path d="M7 16v.01" />
  </symbol>

  <symbol id="debugbar-icon-tags" viewBox="0 0 24 24">
    <path stroke="none" d="M0 0h24v24H0z" fill="none"/> <path d="M3 8v4.172a2 2 0 0 0 .586 1.414l5.71 5.71a2.41 2.41 0 0 0 3.408 0l3.592 -3.592a2.41 2.41 0 0 0 0 -3.408l-5.71 -5.71a2 2 0 0 0 -1.414 -.586h-4.172a2 2 0 0 0 -2 2z" /> <path d="M18 19l1.592 -1.592a4.82 4.82 0 0 0 0 -6.816l-4.592 -4.592" /> <path d="M7 10h-.01" />
  </symbol>

  <symbol id="debugbar-icon-x" viewBox="0 0 24 24">
    <path stroke="none" d="M0 0h24v24H0z" fill="none"/> <path d="M18 6l-12 12" /> <path d="M6 6l12 12" />
  </symbol>

  <symbol id="debugbar-icon-chevron-down" viewBox="0 0 24 24">
    <path stroke="none" d="M0 0h24v24H0z" fill="none"/> <path d="M6 9l6 6l6 -6" />
  </symbol>

  <symbol id="debugbar-icon-chevron-up" viewBox="0 0 24 24">
    <path stroke="none" d="M0 0h24v24H0z" fill="none"/> <path d="M6 15l6 -6l6 6" />
  </symbol>

  <symbol id="debugbar-icon-folder-open" viewBox="0 0 24 24">
    <path stroke="none" d="M0 0h24v24H0z" fill="none"/> <path d="M5 19l2.757 -7.351a1 1 0 0 1 .936 -.649h12.307a1 1 0 0 1 .986 1.164l-.996 5.211a2 2 0 0 1 -1.964 1.625h-14.026a2 2 0 0 1 -2 -2v-11a2 2 0 0 1 2 -2h4l3 3h7a2 2 0 0 1 2 2v2" />
  </symbol>

  <symbol id="debugbar-icon-brand-php" viewBox="0 0 24 24">
    <path stroke="none" d="M0 0h24v24H0z" fill="none"/> <path d="M12 12m-10 0a10 9 0 1 0 20 0a10 9 0 1 0 -20 0" /> <path d="M5.5 15l.395 -1.974l.605 -3.026h1.32a1 1 0 0 1 .986 1.164l-.167 1a1 1 0 0 1 -.986 .836h-1.653" /> <path d="M15.5 15l.395 -1.974l.605 -3.026h1.32a1 1 0 0 1 .986 1.164l-.167 1a1 1 0 0 1 -.986 .836h-1.653" /> <path d="M12 7.5l-1 5.5" /> <path d="M11.6 10h2.4l-.5 3" />
  </symbol>

  <symbol id="debugbar-icon-cpu" viewBox="0 0 24 24">
    <path stroke="none" d="M0 0h24v24H0z" fill="none"/> <path d="M5 5m0 1a1 1 0 0 1 1 -1h12a1 1 0 0 1 1 1v12a1 1 0 0 1 -1 1h-12a1 1 0 0 1 -1 -1z" /> <path d="M9 9h6v6h-6z" /> <path d="M3 10h2" /> <path d="M3 14h2" /> <path d="M10 3v2" /> <path d="M14 3v2" /> <path d="M21 10h-2" /> <path d="M21 14h-2" /> <path d="M14 21v-2" /> <path d="M10 21v-2" />
  </symbol>

  <symbol id="debugbar-icon-table" viewBox="0 0 24 24">
    <path stroke="none" d="M0 0h24v24H0z" fill="none"/> <path d="M3 5a2 2 0 0 1 2 -2h14a2 2 0 0 1 2 2v14a2 2 0 0 1 -2 2h-14a2 2 0 0 1 -2 -2v-14z" /> <path d="M3 10h18" /> <path d="M10 3v18" />
  </symbol>

  <symbol id="debugbar-icon-link" viewBox="0 0 24 24">
    <path stroke="none" d="M0 0h24v24H0z" fill="none"/> <path d="M9 15l6 -6" /> <path d="M11 6l.463 -.536a5 5 0 0 1 7.071 7.072l-.534 .464" /> <path d="M13 18l-.397 .534a5.068 5.068 0 0 1 -7.127 0a4.972 4.972 0 0 1 0 -7.071l.524 -.463" />
  </symbol>

  <symbol id="debugbar-icon-copy" viewBox="0 0 24 24">
    <path stroke="none" d="M0 0h24v24H0z" fill="none"/> <path d="M7 7m0 2.667a2.667 2.667 0 0 1 2.667 -2.667h8.666a2.667 2.667 0 0 1 2.667 2.667v8.666a2.667 2.667 0 0 1 -2.667 2.667h-8.666a2.667 2.667 0 0 1 -2.667 -2.667z" /> <path d="M4.012 16.737a2.005 2.005 0 0 1 -1.012 -1.737v-10c0 -1.1 .9 -2 2 -2h10c.75 0 1.158 .385 1.5 1" />
  </symbol>

  <symbol id="debugbar-icon-circle-check" viewBox="0 0 24 24">
    <path stroke="none" d="M0 0h24v24H0z" fill="none"/> <path d="M12 12m-9 0a9 9 0 1 0 18 0a9 9 0 1 0 -18 0" /> <path d="M9 12l2 2l4 -4" />
  </symbol>

  <symbol id="debugbar-icon-external-link" viewBox="0 0 24 24">
    <path stroke="none" d="M0 0h24v24H0z" fill="none"/> <path d="M12 6h-6a2 2 0 0 0 -2 2v10a2 2 0 0 0 2 2h10a2 2 0 0 0 2 -2v-6" /> <path d="M11 13l9 -9" /> <path d="M15 4h5v5" />
  </symbol>

</svg>
